<svg xmlns="http://www.w3.org/2000/svg" xmlns:xlink="http://www.w3.org/1999/xlink" width="860" zoomAndPan="magnify" viewBox="0 0 645 149.999998" height="200" preserveAspectRatio="xMidYMid meet" version="1.0"><defs><g/></defs><g fill="#000000" fill-opacity="1"><g transform="translate(-12.711643, 125.999995)"><g><path d="M 34.25 -103.1875 L 34.25 0 L 9.109375 0 L 9.109375 -103.1875 Z M 34.25 -103.1875 "/></g></g></g><g fill="#000000" fill-opacity="1"><g transform="translate(25.063922, 125.999995)"><g><path d="M 105.984375 -103.1875 L 69.390625 0 L 37.921875 0 L 1.328125 -103.1875 L 28.078125 -103.1875 L 53.65625 -25.28125 L 79.375 -103.1875 Z M 105.984375 -103.1875 "/></g></g></g><g fill="#000000" fill-opacity="1"><g transform="translate(126.77937, 125.999995)"><g><path d="M 73.359375 -18.234375 L 34.84375 -18.234375 L 28.671875 0 L 2.359375 0 L 39.6875 -103.1875 L 68.796875 -103.1875 L 106.140625 0 L 79.53125 0 Z M 66.890625 -37.625 L 54.09375 -75.40625 L 41.453125 -37.625 Z M 66.890625 -37.625 "/></g></g></g><g fill="#000000" fill-opacity="1"><g transform="translate(229.523734, 125.999995)"><g><path d="M 101.4375 0 L 76.296875 0 L 34.25 -63.65625 L 34.25 0 L 9.109375 0 L 9.109375 -103.1875 L 34.25 -103.1875 L 76.296875 -39.25 L 76.296875 -103.1875 L 101.4375 -103.1875 Z M 101.4375 0 "/></g></g></g><g fill="#000000" fill-opacity="1"><g transform="translate(334.472939, 125.999995)"><g><path d="M 20.875 1.171875 C 16.46875 1.171875 12.863281 -0.125 10.0625 -2.71875 C 7.269531 -5.3125 5.875 -8.519531 5.875 -12.34375 C 5.875 -16.269531 7.269531 -19.554688 10.0625 -22.203125 C 12.863281 -24.847656 16.46875 -26.171875 20.875 -26.171875 C 25.1875 -26.171875 28.738281 -24.847656 31.53125 -22.203125 C 34.320312 -19.554688 35.71875 -16.269531 35.71875 -12.34375 C 35.71875 -8.519531 34.320312 -5.3125 31.53125 -2.71875 C 28.738281 -0.125 25.1875 1.171875 20.875 1.171875 Z M 20.875 1.171875 "/></g></g></g><g fill="#000000" fill-opacity="1"><g transform="translate(370.337667, 125.999995)"><g><path d="M 47.78125 -103.1875 C 58.65625 -103.1875 68.160156 -101.03125 76.296875 -96.71875 C 84.429688 -92.414062 90.726562 -86.367188 95.1875 -78.578125 C 99.644531 -70.785156 101.875 -61.789062 101.875 -51.59375 C 101.875 -41.5 99.644531 -32.53125 95.1875 -24.6875 C 90.726562 -16.851562 84.40625 -10.78125 76.21875 -6.46875 C 68.03125 -2.15625 58.550781 0 47.78125 0 L 9.109375 0 L 9.109375 -103.1875 Z M 46.15625 -21.75 C 55.664062 -21.75 63.066406 -24.347656 68.359375 -29.546875 C 73.648438 -34.742188 76.296875 -42.09375 76.296875 -51.59375 C 76.296875 -61.101562 73.648438 -68.503906 68.359375 -73.796875 C 63.066406 -79.085938 55.664062 -81.734375 46.15625 -81.734375 L 34.25 -81.734375 L 34.25 -21.75 Z M 46.15625 -21.75 "/></g></g></g><g fill="#000000" fill-opacity="1"><g transform="translate(471.612174, 125.999995)"><g><path d="M 34.25 -83.0625 L 34.25 -62.1875 L 67.90625 -62.1875 L 67.90625 -42.78125 L 34.25 -42.78125 L 34.25 -20.140625 L 72.328125 -20.140625 L 72.328125 0 L 9.109375 0 L 9.109375 -103.1875 L 72.328125 -103.1875 L 72.328125 -83.0625 Z M 34.25 -83.0625 "/></g></g></g><g fill="#000000" fill-opacity="1"><g transform="translate(545.546863, 125.999995)"><g><path d="M 105.984375 -103.1875 L 69.390625 0 L 37.921875 0 L 1.328125 -103.1875 L 28.078125 -103.1875 L 53.65625 -25.28125 L 79.375 -103.1875 Z M 105.984375 -103.1875 "/></g></g></g></svg>